<?xml version="1.0" standalone="no"?>
<!DOCTYPE svg PUBLIC "-//W3C//DTD SVG 20010904//EN"
 "http://www.w3.org/TR/2001/REC-SVG-20010904/DTD/svg10.dtd">
<svg version="1.0" xmlns="http://www.w3.org/2000/svg"
 width="1487.000000pt" height="973.000000pt" viewBox="0 0 1487.000000 973.000000"
 preserveAspectRatio="xMidYMid meet">
<metadata>
Created by potrace 1.14, written by Peter Selinger 2001-2017
</metadata>
<g transform="translate(0.000000,973.000000) scale(0.100000,-0.100000)"
fill="#000000" stroke="none">
<path d="M7369 9719 c-339 -51 -631 -816 -803 -2109 -27 -199 -28 -205 -80
-732 l-5 -47 50 -16 c28 -10 51 -15 53 -14 1 2 10 96 20 209 43 505 137 1124
232 1530 158 673 376 1080 579 1080 189 0 407 -374 574 -985 100 -362 199
-870 257 -1317 l17 -127 -31 -35 c-37 -42 -48 -92 -33 -139 12 -34 53 -79 82
-90 12 -4 18 -25 23 -89 13 -152 11 -148 67 -148 57 0 56 -4 38 144 l-11 88
30 32 c40 40 55 82 47 126 -9 48 -29 76 -74 104 -37 23 -38 27 -45 93 -9 95
-41 299 -87 567 -180 1036 -444 1710 -724 1846 -55 27 -120 37 -176 29z m1030
-2564 c66 -34 76 -133 19 -187 -24 -23 -39 -28 -78 -28 -39 0 -54 5 -78 28
-78 73 -30 200 76 202 18 0 46 -7 61 -15z"/>
<path d="M13528 9229 c-480 -31 -1143 -161 -1833 -361 -115 -33 -225 -64 -242
-70 -32 -9 -33 -10 -33 -65 0 -48 2 -54 18 -48 55 21 567 163 774 215 595 146
1054 217 1473 227 373 9 595 -23 778 -110 157 -75 239 -161 278 -289 29 -95
23 -244 -15 -373 -55 -186 -220 -475 -411 -721 -186 -237 -492 -568 -750 -809
l-116 -108 -37 20 c-79 44 -161 41 -233 -7 -85 -57 -120 -148 -93 -244 8 -28
16 -56 17 -62 1 -6 -71 -72 -159 -146 l-162 -135 -108 28 c-231 61 -853 196
-859 187 -1 -2 -16 -23 -32 -48 l-31 -46 101 -18 c253 -45 817 -174 817 -187
0 -7 -243 -196 -476 -372 l-141 -105 -19 61 c-157 527 -528 962 -1027 1202
-345 166 -751 235 -1036 175 -294 -62 -762 -271 -1291 -577 l-225 -130 -10
131 -10 131 -52 3 c-61 4 -60 7 -43 -106 5 -37 11 -101 13 -143 l4 -76 -191
-118 c-390 -243 -902 -583 -1407 -938 l-234 -164 -3 -161 c-1 -99 1 -162 7
-162 8 0 1619 763 2031 962 58 28 193 92 300 143 107 51 258 123 335 160 418
200 446 211 602 234 105 16 420 14 536 -4 512 -77 924 -521 954 -1027 l6 -97
-1111 0 -1111 0 -293 -233 c-505 -400 -603 -479 -606 -489 -2 -5 388 -9 1023
-9 l1028 0 36 22 c257 156 983 630 1239 807 l102 72 0 -58 c-1 -57 -2 -59 -43
-88 -129 -90 -818 -547 -966 -641 l-173 -109 270 -3 269 -2 129 -133 c71 -73
159 -167 197 -208 l67 -77 -2 -198 -3 -199 -210 -32 c-285 -44 -791 -107
-1065 -133 -124 -12 -235 -23 -247 -26 -19 -4 -98 -102 -90 -111 5 -5 590 57
877 92 247 31 606 82 707 101 l32 6 3 -153 3 -154 206 -3 207 -2 12 -44 c23
-85 93 -145 180 -155 l44 -6 19 -60 c49 -162 62 -344 32 -460 -65 -248 -293
-406 -667 -461 -171 -25 -552 -15 -788 20 -557 85 -1203 276 -1890 562 l-175
72 -37 -36 c-21 -20 -34 -40 -30 -44 12 -12 316 -137 517 -213 1223 -462 2183
-597 2732 -386 220 85 386 258 438 456 37 143 26 325 -29 501 l-25 78 39 42
c75 82 79 199 9 278 l-29 34 0 139 0 139 188 43 c429 100 837 223 1182 358
183 72 484 224 620 314 143 94 332 275 388 371 113 192 115 391 5 577 -51 86
-181 221 -291 301 l-89 65 -4 67 c-6 82 -41 139 -109 176 -64 33 -159 29 -220
-12 l-42 -28 -132 55 c-169 71 -345 134 -541 195 -86 26 -157 51 -158 54 -1 3
58 56 132 118 l134 112 37 -11 c55 -16 129 -13 176 8 92 42 152 162 125 252
-7 23 -9 45 -4 49 4 3 87 82 184 173 285 269 560 574 753 834 493 663 545
1155 149 1414 -215 140 -590 199 -1075 168z m-125 -2532 c22 -12 50 -41 64
-65 22 -36 25 -52 21 -106 -3 -51 -10 -71 -32 -101 -59 -77 -173 -96 -255 -42
-69 46 -100 151 -67 230 16 40 77 95 114 103 15 3 32 7 37 9 20 8 81 -7 118
-28z m-446 -711 c218 -66 429 -139 594 -208 l147 -61 4 -68 c4 -83 39 -140
108 -177 64 -33 159 -29 220 11 l42 28 41 -27 c144 -94 264 -221 325 -343 36
-72 37 -79 37 -180 0 -102 -1 -109 -38 -185 -86 -182 -253 -332 -554 -501
-360 -202 -948 -405 -1615 -558 l-147 -34 -4 801 c-4 681 -7 815 -21 895 -9
52 -15 95 -13 96 47 33 517 390 602 459 66 53 121 96 122 96 0 0 68 -20 150
-44z m1047 -180 c153 -90 88 -326 -90 -326 -100 0 -174 75 -174 175 0 137 146
220 264 151z m-2654 -1586 l0 -130 -67 72 c-38 40 -92 99 -122 130 l-54 58
121 0 122 0 0 -130z m804 -1067 c10 -46 -11 -112 -48 -149 -83 -83 -218 -58
-267 50 -10 23 -19 47 -19 53 0 9 39 13 148 15 l147 3 3 55 c3 52 4 54 17 30
7 -14 16 -39 19 -57z"/>
<path d="M9965 8405 c-106 -37 -139 -173 -61 -251 109 -109 281 -22 263 133
-10 91 -112 150 -202 118z m143 -59 c34 -32 37 -38 37 -91 0 -53 -3 -59 -37
-91 -32 -29 -45 -34 -87 -34 -61 0 -105 33 -122 89 -25 84 34 161 122 161 42
0 55 -5 87 -34z"/>
<path d="M3654 8009 c-190 -22 -384 -84 -497 -159 -185 -122 -278 -286 -294
-514 -13 -194 84 -515 230 -765 l37 -62 -27 -41 c-21 -32 -28 -56 -31 -108 -5
-79 17 -131 73 -178 l36 -29 -34 -54 c-119 -187 -219 -462 -263 -724 -36 -209
-20 -551 35 -761 l18 -72 -54 -4 c-44 -4 -60 -11 -87 -37 -35 -34 -58 -96 -49
-130 4 -15 -38 -51 -198 -172 -112 -85 -272 -209 -357 -276 l-154 -122 39 -10
c91 -24 80 -27 198 66 61 48 204 158 319 246 186 140 213 157 235 150 14 -4
49 -8 77 -8 39 0 58 6 84 26 l33 25 52 -100 c130 -257 340 -508 566 -678 74
-56 76 -56 185 -72 371 -54 949 -113 1475 -151 l206 -15 154 66 c140 60 633
303 627 310 -2 1 -154 103 -340 226 l-336 224 -104 -49 c-56 -26 -140 -59
-185 -72 -205 -60 -575 -60 -798 -1 -390 104 -709 430 -807 825 -18 72 -22
117 -22 276 -1 178 1 196 26 288 15 54 43 132 63 173 l35 76 -33 37 c-17 21
-77 89 -133 152 -55 63 -125 145 -156 184 l-56 69 30 38 30 38 62 -78 c35 -42
118 -139 185 -215 l122 -137 44 57 c104 139 285 283 441 354 301 135 677 129
964 -16 147 -74 342 -232 405 -329 19 -28 19 -29 -5 -48 -13 -11 -228 -166
-477 -345 -249 -179 -453 -327 -453 -328 0 -2 71 -104 159 -227 l159 -223 115
-87 c64 -49 119 -88 122 -88 12 0 123 86 330 255 191 156 564 452 691 548 l51
39 8 331 c4 183 10 388 14 456 l6 125 -60 80 c-308 415 -789 692 -1319 762
-161 21 -435 14 -591 -15 -353 -66 -700 -233 -940 -453 -35 -32 -67 -58 -73
-58 -5 0 -15 7 -23 16 -34 42 -143 69 -208 53 -30 -8 -181 306 -227 475 -31
111 -43 300 -25 389 45 212 224 377 482 442 209 52 594 58 919 15 147 -19 486
-84 597 -114 l51 -14 42 43 43 44 -39 10 c-217 58 -561 121 -797 146 -156 16
-500 18 -623 4z m-281 -1495 c45 -23 66 -44 88 -86 41 -81 13 -185 -63 -235
-57 -38 -147 -40 -200 -4 -77 53 -106 141 -74 225 28 72 90 115 169 116 26 0
62 -7 80 -16z m-395 -2098 c18 -49 31 -95 28 -103 -3 -7 -20 -22 -38 -33 -78
-49 -188 10 -188 100 0 81 50 132 125 127 l40 -2 33 -89z"/>
<path d="M2445 6165 c-608 -154 -1031 -299 -1395 -481 -334 -168 -545 -329
-665 -510 -149 -224 -133 -454 46 -679 l59 -75 -11 -45 c-47 -188 148 -338
322 -247 l54 28 70 -39 c38 -21 112 -58 162 -82 l93 -44 30 43 29 43 -162 81
-163 80 1 74 c0 62 -4 80 -27 119 -15 25 -46 59 -69 75 -56 38 -163 46 -222
16 l-37 -20 -40 47 c-23 25 -59 83 -82 129 -36 72 -42 93 -46 165 -3 66 0 95
18 147 131 389 851 769 2010 1062 l167 42 41 63 c23 35 39 63 35 62 -5 0 -102
-24 -218 -54z m-1672 -1679 c99 -41 142 -172 87 -264 -91 -149 -307 -108 -344
65 -15 69 40 169 109 199 39 17 107 17 148 0z"/>
<path d="M9104 5771 c-352 -168 -1075 -513 -1607 -766 l-967 -460 0 -80 c0
-129 22 -629 29 -642 4 -8 39 8 106 49 825 496 1782 1171 2880 2032 204 160
224 177 210 175 -6 -1 -298 -139 -651 -308z"/>
<path d="M6530 5922 c0 -65 -3 -221 -7 -347 l-6 -228 166 124 c91 68 165 128
163 133 -4 18 -301 435 -308 435 -5 1 -8 -52 -8 -117z"/>
<path d="M6035 4679 c-203 -148 -403 -293 -442 -322 -40 -29 -73 -54 -73 -57
0 -3 15 -14 32 -26 l32 -21 96 47 c52 26 240 116 418 200 l322 153 0 149 c0
81 -3 148 -7 148 -5 0 -174 -122 -378 -271z"/>
<path d="M6415 4492 c-5 -5 -161 -80 -345 -167 -184 -87 -338 -161 -342 -165
-7 -5 351 -248 572 -387 l94 -60 33 20 33 19 -6 92 c-3 50 -11 218 -18 374 -7
187 -14 280 -21 274z"/>
<path d="M1780 3588 c-294 -249 -506 -443 -750 -688 -607 -606 -941 -1095
-1016 -1488 -47 -244 26 -456 201 -589 379 -289 1228 -279 2473 28 l174 43 24
-31 c121 -155 377 -92 413 100 5 26 11 50 14 53 2 3 94 33 203 67 l199 62 3
53 c2 28 -1 52 -5 52 -4 0 -102 -29 -218 -65 -115 -36 -212 -65 -215 -65 -3 0
-14 14 -24 30 -9 17 -41 44 -69 60 -43 25 -63 30 -117 30 -118 0 -208 -75
-231 -192 l-12 -57 -186 -45 c-617 -148 -1041 -213 -1461 -223 -262 -6 -407 4
-573 42 -708 160 -667 743 118 1661 268 314 727 754 1188 1137 73 62 135 116
136 121 2 10 -71 36 -99 36 -8 0 -85 -60 -170 -132z m1368 -2403 c157 -66 163
-278 10 -356 -120 -62 -278 35 -278 171 0 141 141 238 268 185z"/>
<path d="M3962 3320 c9 -6 67 -31 129 -56 291 -116 636 -167 884 -130 122 18
305 64 263 65 -160 6 -1106 100 -1263 126 -23 4 -26 2 -13 -5z"/>
<path d="M6485 3111 c-49 -22 -99 -77 -115 -126 -19 -58 -9 -146 23 -194 35
-52 102 -91 169 -98 45 -4 61 -1 108 24 75 40 112 94 118 172 5 72 -10 121
-51 168 -41 47 -99 73 -162 73 -27 0 -68 -9 -90 -19z m171 -40 c96 -44 134
-164 80 -256 -18 -29 -41 -53 -69 -67 -88 -45 -194 -16 -243 67 -54 92 -16
212 80 256 22 10 57 19 76 19 19 0 54 -9 76 -19z"/>
<path d="M6666 1842 c2 -10 22 -111 45 -227 97 -498 229 -936 366 -1209 88
-177 215 -327 319 -375 72 -35 155 -38 229 -10 47 17 76 38 136 98 124 125
217 302 320 611 53 163 159 562 159 602 0 18 -22 31 -75 44 -20 5 -25 2 -25
-12 0 -28 -86 -373 -126 -509 -107 -357 -251 -626 -382 -713 -67 -45 -131 -49
-200 -13 -83 43 -189 175 -270 336 -123 246 -246 654 -342 1136 -24 118 -46
217 -49 221 -3 3 -29 13 -57 21 -48 14 -51 14 -48 -1z"/>
</g>
</svg>
